# xmcd
#
# Track frame offsets:
#	150
#	11513
#	25913
#	41588
#	54638
#	65550
#	80513
#	90675
#	114150
#	129488
#
# Disc length: 1953 seconds
# Revision: 0
# Processed by: cddbd v1.5.2PL0 Copyright (c) Steve Scherf et al.
# Submitted via: dBpowerAMP V12.0
#
DISCID=7a079f0a
DTITLE=Tom DeVoursney - Tom DeVoursney
DYEAR=1900
DGENRE=Country
TTITLE0=Baby I Do
TTITLE1=Any Night But Tonight
TTITLE2=Do It Now
TTITLE3=Hooked On Your Line
TTITLE4=Gospel Road
TTITLE5=Country Nights
TTITLE6=Running Shoes
TTITLE7=Long Way To Go
TTITLE8=A Little Romance
TTITLE9=Sound of The Son
EXTD=
EXTT0=
EXTT1=
EXTT2=
EXTT3=
EXTT4=
EXTT5=
EXTT6=
EXTT7=
EXTT8=
EXTT9=
PLAYORDER=
